<svg width="128" height="128" viewBox="0 0 128 128" fill="none" xmlns="http://www.w3.org/2000/svg">
<g clip-path="url(#clip0_2_2)">
<mask id="mask0_2_2" style="mask-type:luminance" maskUnits="userSpaceOnUse" x="0" y="0" width="128" height="128">
<path d="M128 0H0V128H128V0Z" fill="white"/>
</mask>
<g mask="url(#mask0_2_2)">
<path d="M112 0H16C7.16344 0 0 7.16344 0 16V112C0 120.837 7.16344 128 16 128H112C120.837 128 128 120.837 128 112V16C128 7.16344 120.837 0 112 0Z" fill="#164E82"/>
<path d="M93.9875 52.825C94.3875 53.9125 94.05 55.125 93.1875 55.9L87.775 60.825C87.9125 61.8625 87.9875 62.925 87.9875 64C87.9875 65.075 87.9125 66.1375 87.775 67.175L93.1875 72.1C94.05 72.875 94.3875 74.0875 93.9875 75.175C93.4375 76.6625 92.775 78.0875 92.0125 79.4625L91.425 80.475C90.6 81.85 89.675 83.15 88.6625 84.375C87.925 85.275 86.7 85.575 85.6 85.225L78.6375 83.0125C76.9625 84.3 75.1125 85.375 73.1375 86.1875L71.575 93.325C71.325 94.4625 70.45 95.3625 69.3 95.55C67.575 95.8375 65.8 95.9875 63.9875 95.9875C62.175 95.9875 60.4 95.8375 58.675 95.55C57.525 95.3625 56.65 94.4625 56.4 93.325L54.8375 86.1875C52.8625 85.375 51.0125 84.3 49.3375 83.0125L42.3875 85.2375C41.2875 85.5875 40.0625 85.275 39.325 84.3875C38.3125 83.1625 37.3875 81.8625 36.5625 80.4875L35.975 79.475C35.2125 78.1 34.55 76.675 34 75.1875C33.6 74.1 33.9375 72.8875 34.8 72.1125L40.2125 67.1875C40.075 66.1375 40 65.075 40 64C40 62.925 40.075 61.8625 40.2125 60.825L34.8 55.9C33.9375 55.125 33.6 53.9125 34 52.825C34.55 51.3375 35.2125 49.9125 35.975 48.5375L36.5625 47.525C37.3875 46.15 38.3125 44.85 39.325 43.625C40.0625 42.725 41.2875 42.425 42.3875 42.775L49.35 44.9875C51.025 43.7 52.875 42.625 54.85 41.8125L56.4125 34.675C56.6625 33.5375 57.5375 32.6375 58.6875 32.45C60.4125 32.15 62.1875 32 64 32C65.8125 32 67.5875 32.15 69.3125 32.4375C70.4625 32.625 71.3375 33.525 71.5875 34.6625L73.15 41.8C75.125 42.6125 76.975 43.6875 78.65 44.975L85.6125 42.7625C86.7125 42.4125 87.9375 42.725 88.675 43.6125C89.6875 44.8375 90.6125 46.1375 91.4375 47.5125L92.025 48.525C92.7875 49.9 93.45 51.325 94 52.8125L93.9875 52.825ZM64 74C66.6522 74 69.1957 72.9465 71.071 71.071C72.9465 69.1957 74 66.6522 74 64C74 61.3477 72.9465 58.8043 71.071 56.929C69.1957 55.0535 66.6522 54 64 54C61.3477 54 58.8042 55.0535 56.929 56.929C55.0535 58.8043 54 61.3477 54 64C54 66.6522 55.0535 69.1957 56.929 71.071C58.8042 72.9465 61.3477 74 64 74Z" fill="#FDFDFD"/>
</g>
</g>
<defs>
<clipPath id="clip0_2_2">
<rect width="128" height="128" fill="white"/>
</clipPath>
</defs>
</svg>
